HIERARCHY
ROOT Hips
{
	OFFSET 0.00000 0.00000 0.00000
	CHANNELS 6 Xposition Yposition Zposition Zrotation Yrotation Xrotation 
	JOINT LHipJoint
	{
		OFFSET 0 0 0
		CHANNELS 3 Zrotation Yrotation Xrotation
		JOINT LeftHip
		{
			OFFSET 1.64549 -1.70879 0.84566
			CHANNELS 3 Zrotation Yrotation Xrotation
			JOINT LeftKnee
			{
				OFFSET 2.24963 -6.18082 0.00000
				CHANNELS 3 Zrotation Yrotation Xrotation
				JOINT LeftAnkle
				{
					OFFSET 2.71775 -7.46697 0.00000
					CHANNELS 3 Zrotation Yrotation Xrotation
					JOINT LeftToe
					{
						OFFSET 0.18768 -0.51564 2.24737
						CHANNELS 3 Zrotation Yrotation Xrotation
						End Site
						{
							OFFSET 0.00000 -0.00000 1.15935
						}
					}
				}
			}
		}
	}
	JOINT RHipJoint
	{
		OFFSET 0 0 0
		CHANNELS 3 Zrotation Yrotation Xrotation
		JOINT RightHip
		{
			OFFSET -1.58830 -1.70879 0.84566
			CHANNELS 3 Zrotation Yrotation Xrotation
			JOINT RightKnee
			{
				OFFSET -2.25006 -6.18201 0.00000
				CHANNELS 3 Zrotation Yrotation Xrotation
				JOINT RightAnkle
				{
					OFFSET -2.72829 -7.49593 0.00000
					CHANNELS 3 Zrotation Yrotation Xrotation
					JOINT RightToe
					{
						OFFSET -0.21541 -0.59185 2.10643
						CHANNELS 3 Zrotation Yrotation Xrotation
						End Site
						{
							OFFSET -0.00000 -0.00000 1.09838
						}
					}
				}
			}
		}
	}
	JOINT lowerback
	{
		OFFSET 0 0 0
		CHANNELS 3 Zrotation Yrotation Xrotation
		JOINT Chest
		{
			OFFSET 0.03142 2.10496 -0.11038
			CHANNELS 3 Zrotation Yrotation Xrotation
			JOINT Chest2
			{
				OFFSET -0.01863 2.10897 -0.06956
				CHANNELS 3 Zrotation Yrotation Xrotation
				JOINT lowerneck
				{
					OFFSET 0 0 0
					CHANNELS 3 Zrotation Yrotation Xrotation
					JOINT Neck
					{
						OFFSET -0.02267 1.73238 0.00451
						CHANNELS 3 Zrotation Yrotation Xrotation
						JOINT Head
						{
							OFFSET -0.05808 1.54724 -0.61749
							CHANNELS 3 Zrotation Yrotation Xrotation
							End Site
							{
								OFFSET -0.01396 1.71468 -0.21082
							}
						}
					}
				}
				JOINT LeftCollar
				{
					OFFSET 0 0 0
					CHANNELS 3 Zrotation Yrotation Xrotation
					JOINT LeftShoulder
					{
						OFFSET 3.44898 0.50298 0.21920
CHANNELS 3 Zrotation Xrotation Yrotation
						JOINT LeftElbow
						{
OFFSET 0 -5.419170 -0.000000
CHANNELS 3 Zrotation Xrotation Yrotation
							JOINT LeftWrist
							{
OFFSET 0 -2.443730 0.000000
CHANNELS 3 Zrotation Xrotation Yrotation
								JOINT lhand
								{
									OFFSET 0 0 0
CHANNELS 3 Zrotation Xrotation Yrotation
									JOINT LFingers
									{
OFFSET 0 -0.727500 0.000000
CHANNELS 3 Zrotation Xrotation Yrotation
										End Site
										{
OFFSET 0 -0.586530 0.000000
										}
									}
								}
								JOINT LThumb
								{
OFFSET 0 0.000000 0.000000
CHANNELS 3 Zrotation Xrotation Yrotation
									End Site
									{
OFFSET 0 -0.595490 0.595490
									}
								}
							}
						}
					}
				}
				JOINT RightCollar
				{
					OFFSET 0 0 0
					CHANNELS 3 Zrotation Yrotation Xrotation
					JOINT RightShoulder
					{
						OFFSET -3.23015 0.55830 0.31051
CHANNELS 3 Zrotation Xrotation Yrotation
						JOINT RightElbow
						{
OFFSET 0 -5.589760 0.000140
CHANNELS 3 Zrotation Xrotation Yrotation
							JOINT RightWrist
							{
OFFSET 0 -2.480600 0.000000
CHANNELS 3 Zrotation Xrotation Yrotation
								JOINT rhand
								{
									OFFSET 0 0 0
CHANNELS 3 Zrotation Xrotation Yrotation
									JOINT RFingers
									{
OFFSET 0 -0.816010 0.000000
CHANNELS 3 Zrotation Xrotation Yrotation
										End Site
										{
OFFSET 0 -0.657890 0.000000
										}
									}
								}
								JOINT RThumb
								{
OFFSET 0 0.000000 0.000000
CHANNELS 3 Zrotation Xrotation Yrotation
									End Site
									{
OFFSET 0 -0.667930 0.667930
									}
								}
							}
						}
					}
				}
			}
		}
	}
}
MOTION
Frames: 6
Frame Time: 0.008333333333333333
-0.219700 16.185700 -15.061500 176.422000 0.243000 -153.022000 0.000000 0.000000 0.000000 -33.070100 -10.428700 -45.142700 4.745100 13.090900 39.709700 3.432900 10.649700 -39.820200 0.116200 2.197600 6.052000 0.000000 0.000000 0.000000 24.660600 -4.397800 -34.518900 -9.953500 -17.383600 59.332900 1.881600 -37.154300 17.641000 -2.427200 -9.704200 28.024200 -5.350000 0.628900 -20.333300 -1.734200 -0.043800 -9.212100 1.160000 -0.738900 1.310300 -0.412000 1.732700 -9.299400 1.670300 -2.860700 37.327800 -0.085800 -2.741500 14.410700 0.000000 -0.000000 0.000000 6.183300 16.054100 -0.202600 12.691200 -20.833100 2.342300 -28.762700 -8.322800 -19.208900 0.000000 0.000000 0.000000 -7.125000 0.000000 0.000000 -49.041600 43.296300 -2.831700 0.000000 -0.000000 0.000000 -6.519100 13.450100 18.011800 -7.053800 -12.007700 -0.742800 13.895900 5.031900 -8.767900 0.000000 0.000000 0.000000 7.125000 0.000000 -0.000000 28.246900 21.052600 18.568700
-0.230315 16.179976 -15.065066 176.546888 -0.058539 -153.028599 0.000000 0.000000 0.000000 -32.974212 -10.364110 -45.231911 4.803723 13.159235 39.967462 3.444007 10.464700 -39.768259 0.099378 2.030906 5.591118 0.000000 0.000000 0.000000 24.892123 -5.001775 -34.377085 -9.876692 -17.339877 59.075366 1.922014 -36.899905 17.157304 -2.516190 -9.866340 28.545836 -4.922970 0.680976 -20.340271 -1.773068 -0.061015 -9.264772 0.874693 -0.761962 1.268313 -0.345261 1.718154 -9.132632 1.591017 -2.871639 37.273055 -0.128911 -2.751683 14.344874 0.000000 0.000000 0.000000 6.315949 16.097079 -0.246484 12.617571 -20.724260 2.316182 -28.686310 -8.235412 -19.316929 0.000000 0.000000 0.000000 -7.125000 0.000000 0.000000 -49.069160 43.392252 -2.672023 0.000000 0.000000 0.000000 -6.453898 13.440404 17.282276 -6.888439 -11.735446 -0.708767 14.155724 5.770902 -8.615747 0.000000 0.000000 0.000000 7.125000 0.000000 0.000000 28.438706 21.175745 18.640733
-0.251992 16.189713 -15.057611 177.383326 -0.780509 -153.209479 0.000000 0.000000 0.000000 -31.942809 -10.502138 -45.160639 4.870241 13.236105 40.258856 3.441113 10.513340 -39.782271 0.085446 1.884943 5.187680 0.000000 0.000000 0.000000 25.959707 -5.656442 -34.243873 -9.794262 -17.292514 58.798492 1.454035 -36.130992 18.792972 -2.147828 -9.163918 26.312024 -3.526388 0.863325 -19.818344 -1.627849 -0.094051 -9.445106 0.241619 -0.801610 0.842247 -0.274884 1.720258 -8.846020 1.466552 -2.885650 37.290677 -0.194032 -2.783546 14.285396 0.000000 0.000000 0.000000 6.421487 16.218396 -0.174647 12.438244 -20.458487 2.253212 -28.599210 -7.870820 -19.300300 0.000000 0.000000 0.000000 -7.125000 0.000000 0.000000 -49.003457 43.393018 -2.664330 0.000000 0.000000 0.000000 -6.528109 13.805240 17.837962 -6.888113 -11.734891 -0.708675 14.183398 5.148378 -8.618296 0.000000 0.000000 0.000000 7.125000 0.000000 0.000000 28.455150 21.171921 18.657840
-0.248371 16.188514 -15.051488 177.163850 -0.641611 -153.197828 0.000000 0.000000 0.000000 -32.141034 -10.561780 -45.239581 4.899918 13.270184 40.388518 3.524541 10.165454 -39.980535 0.112275 2.157937 5.942412 0.000000 0.000000 0.000000 25.698073 -5.611974 -34.218794 -9.770684 -17.278852 58.719197 1.388540 -35.957635 18.959323 -2.052718 -8.971928 25.709661 -3.833745 0.872285 -19.675744 -1.688126 -0.094713 -9.646289 0.355524 -0.809686 0.545203 -0.376821 1.848380 -8.548549 1.613219 -2.872901 37.567057 -0.124561 -2.821994 14.353337 0.000000 0.000000 0.000000 6.460697 16.480602 -0.194410 12.414457 -20.423248 2.244792 -28.651068 -8.054044 -19.613303 0.000000 0.000000 0.000000 -7.125000 0.000000 0.000000 -49.254500 43.627506 -2.289252 0.000000 0.000000 0.000000 -6.594151 14.183623 18.176996 -6.856696 -11.683144 -0.702413 14.187954 4.906897 -8.647629 0.000000 0.000000 0.000000 7.125000 0.000000 0.000000 28.451644 21.145078 18.675251
-0.257080 16.190510 -15.050926 177.336422 -0.762032 -153.236055 0.000000 0.000000 0.000000 -31.978320 -10.542469 -45.197077 4.912108 13.284166 40.441680 3.549267 9.992672 -40.001420 0.124773 2.277255 6.272461 0.000000 0.000000 0.000000 25.893801 -5.878878 -34.192091 -9.737915 -17.259800 58.608801 0.935894 -35.108237 20.472905 -1.649967 -8.086460 22.982099 -3.502371 0.888640 -19.679835 -1.630129 -0.124925 -9.644085 0.223905 -0.831948 0.557923 -0.756114 1.986107 -8.682480 2.050897 -2.829039 37.858804 0.116361 -2.823268 14.532715 0.000000 0.000000 0.000000 6.381886 16.628355 -0.505975 12.610529 -20.713766 2.313746 -28.671099 -8.762838 -20.073319 0.000000 0.000000 0.000000 -7.125000 0.000000 0.000000 -49.591751 43.979716 -1.715816 0.000000 0.000000 0.000000 -6.684412 14.121112 18.049279 -6.755779 -11.516593 -0.682046 14.393157 5.242015 -8.520828 0.000000 0.000000 0.000000 7.125000 0.000000 0.000000 28.604564 21.247965 18.728774
-0.257164 16.190558 -15.048123 177.311331 -0.739546 -153.227062 0.000000 0.000000 0.000000 -32.053871 -10.503660 -45.216614 4.911127 13.283054 40.437426 3.530747 10.076423 -39.960355 0.114241 2.179186 6.001093 0.000000 0.000000 0.000000 25.872997 -5.915872 -34.210744 -9.716192 -17.247138 58.535362 0.673833 -34.671283 21.407636 -1.426719 -7.552593 21.363329 -3.534559 0.892523 -19.858550 -1.571565 -0.041218 -9.399936 0.315299 -0.768949 0.910657 -1.109811 1.887505 -9.270761 2.140877 -2.821608 37.874741 0.218484 -2.815965 14.678741 0.000000 0.000000 0.000000 6.239896 16.078892 -0.384091 12.536615 -20.604524 2.287642 -28.751968 -8.584230 -19.964386 0.000000 0.000000 0.000000 -7.125000 0.000000 0.000000 -49.564989 43.883080 -1.878881 0.000000 0.000000 0.000000 -6.810122 13.632359 17.301889 -6.634264 -11.315808 -0.658000 14.616710 5.992850 -8.810544 0.000000 0.000000 0.000000 7.125000 0.000000 0.000000 28.678681 20.972880 19.004850
